<svg width="128" height="128" viewBox="0 0 128 128" fill="none" xmlns="http://www.w3.org/2000/svg">
  <g transform="translate(2 2)">
    <path d="M61.888 45.416H108.544V53.864H61.888V45.416ZM75.328 90.92L82.144 86.696C83.616 88.104 85.056 89.672 86.464 91.4C87.872 93.128 89.152 94.824 90.304 96.488C91.456 98.152 92.384 99.688 93.088 101.096L85.984 105.992C85.344 104.584 84.416 102.984 83.2 101.192C82.048 99.464 80.8 97.704 79.456 95.912C78.112 94.056 76.736 92.392 75.328 90.92ZM90.208 48.584C91.168 55.944 92.48 63.016 94.144 69.8C95.808 76.584 97.92 82.76 100.48 88.328C103.04 93.832 106.144 98.376 109.792 101.96C109.024 102.472 108.192 103.144 107.296 103.976C106.464 104.808 105.632 105.672 104.8 106.568C104.032 107.528 103.392 108.424 102.88 109.256C99.04 105.032 95.808 99.88 93.184 93.8C90.56 87.656 88.384 80.872 86.656 73.448C84.992 66.024 83.616 58.184 82.528 49.928L90.208 48.584ZM79.264 19.88H88.096V45.32C88.096 47.624 87.904 50.664 87.52 54.44C87.2 58.152 86.56 62.312 85.6 66.92C84.704 71.464 83.36 76.2 81.568 81.128C79.84 86.056 77.632 90.888 74.944 95.624C72.256 100.36 68.992 104.744 65.152 108.776C64.32 107.88 63.168 106.824 61.696 105.608C60.224 104.456 58.88 103.496 57.664 102.728C61.504 99.08 64.704 95.144 67.264 90.92C69.888 86.632 71.968 82.312 73.504 77.96C75.104 73.544 76.32 69.32 77.152 65.288C77.984 61.192 78.528 57.448 78.784 54.056C79.104 50.6 79.264 47.72 79.264 45.416V19.88ZM29.152 38.504H58.432V45.512H29.152V38.504ZM29.152 53.288H58.432V60.296H29.152V53.288ZM24.256 67.976H56.512V75.176H24.256V67.976ZM40.576 28.232H48.16V71.624H40.576V28.232ZM44.32 79.304L48.256 77.96C49.408 79.88 50.464 81.992 51.424 84.296C52.448 86.6 53.152 88.584 53.536 90.248L49.312 91.88C48.928 90.152 48.256 88.104 47.296 85.736C46.4 83.368 45.408 81.224 44.32 79.304ZM37.696 80.648L42.016 79.88C42.912 82.376 43.68 85.064 44.32 87.944C45.024 90.824 45.472 93.288 45.664 95.336L41.056 96.296C40.928 94.248 40.544 91.752 39.904 88.808C39.264 85.864 38.528 83.144 37.696 80.648ZM30.976 81.512L35.392 80.936C35.968 83.752 36.352 86.824 36.544 90.152C36.8 93.48 36.864 96.328 36.736 98.696L32.032 99.272C32.16 96.84 32.128 93.992 31.936 90.728C31.744 87.4 31.424 84.328 30.976 81.512ZM23.488 79.88L28.864 81.512C28.544 83.624 28.192 86.024 27.808 88.712C27.424 91.4 26.976 94.024 26.464 96.584C26.016 99.144 25.44 101.384 24.736 103.304L19.264 101.288C19.904 99.368 20.48 97.16 20.992 94.664C21.568 92.168 22.048 89.608 22.432 86.984C22.88 84.36 23.232 81.992 23.488 79.88ZM24.256 23.72H60.448V31.208H32.128V72.488H24.256V23.72ZM53.728 67.976H61.696C61.696 67.976 61.696 68.424 61.696 69.32C61.696 70.152 61.632 70.824 61.504 71.336C61.184 78.952 60.8 85.096 60.352 89.768C59.904 94.44 59.392 98.024 58.816 100.52C58.24 103.016 57.536 104.744 56.704 105.704C55.872 106.664 54.976 107.368 54.016 107.816C53.12 108.264 52.032 108.52 50.752 108.584C49.728 108.712 48.384 108.776 46.72 108.776C45.056 108.84 43.296 108.808 41.44 108.68C41.376 107.592 41.152 106.376 40.768 105.032C40.448 103.688 39.968 102.536 39.328 101.576C40.992 101.704 42.528 101.768 43.936 101.768C45.344 101.832 46.4 101.864 47.104 101.864C47.744 101.864 48.288 101.8 48.736 101.672C49.184 101.544 49.6 101.224 49.984 100.712C50.56 100.072 51.072 98.664 51.52 96.488C51.968 94.312 52.384 91.048 52.768 86.696C53.152 82.344 53.472 76.552 53.728 69.32V67.976Z" fill="black"/>
  </g>
</svg>
